<?xml version="1.0" encoding="UTF-8" standalone="no"?><!DOCTYPE svg PUBLIC "-//W3C//DTD SVG 1.1//EN" "http://www.w3.org/Graphics/SVG/1.1/DTD/svg11.dtd"><svg width="100%" height="100%" viewBox="0 0 568 385" version="1.1" xmlns="http://www.w3.org/2000/svg" xmlns:xlink="http://www.w3.org/1999/xlink" xml:space="preserve" xmlns:serif="http://www.serif.com/" style="fill-rule:evenodd;clip-rule:evenodd;stroke-linejoin:round;stroke-miterlimit:2;"><rect id="Artboard1" x="0" y="0" width="567.104" height="384.983" style="fill:#fff;"/><clipPath id="_clip1"><rect x="0" y="0" width="567.104" height="384.983"/></clipPath><g clip-path="url(#_clip1)"><path d="M104.318,-97.912c-121.237,0 -219.911,98.721 -219.911,219.911c-0,121.191 98.72,219.911 219.911,219.911c121.19,0 219.911,-98.72 219.911,-219.911c-0,-121.19 -98.721,-219.911 -219.911,-219.911Zm-0.326,19.54c7.77,0.201 14.052,6.67 14.05,14.468c-0,7.937 -6.531,14.469 -14.469,14.469c-7.937,-0 -14.468,-6.532 -14.468,-14.469c-0,-0.002 -0,-0.004 -0,-0.006c-0,-7.937 6.531,-14.468 14.468,-14.468c0.14,-0 0.28,0.002 0.419,0.006Zm33.124,23.819c51.379,9.624 95.997,41.401 121.888,86.811l-17.073,38.52c-2.931,6.653 0.093,14.469 6.699,17.446l32.845,14.562c1.019,10.266 1.143,20.602 0.372,30.89l-18.283,0c-1.815,0 -2.559,1.21 -2.559,2.978l-0,8.374c-0,19.725 -11.119,24.052 -20.889,25.122c-9.304,1.07 -19.586,-3.908 -20.888,-9.584c-5.49,-30.844 -14.608,-37.404 -29.03,-48.802c17.911,-11.351 36.52,-28.146 36.52,-50.569c-0,-24.238 -16.609,-39.498 -27.913,-46.988c-15.911,-10.467 -33.496,-12.561 -38.242,-12.561l-188.88,0c26.113,-29.171 61.133,-48.931 99.604,-56.199l22.284,23.354c5.025,5.257 13.352,5.49 18.609,0.419l24.936,-23.773Zm-205.629,107.095c7.779,0.225 14.053,6.687 14.05,14.468c0,7.937 -6.531,14.468 -14.468,14.468c-7.937,0 -14.469,-6.531 -14.469,-14.468c0,-0.002 0,-0.004 0,-0.006c0,-7.937 6.532,-14.468 14.469,-14.468c0.139,-0 0.279,0.002 0.418,0.006Zm344.963,0.651c7.778,0.225 14.053,6.687 14.05,14.468c0,7.937 -6.531,14.469 -14.468,14.469c-7.938,-0 -14.469,-6.532 -14.469,-14.469c0,-0.002 0,-0.004 0,-0.006c0,-7.937 6.531,-14.468 14.469,-14.468c0.139,-0 0.279,0.002 0.418,0.006Zm-317.701,2.326l25.216,-0l-0,113.701l-50.896,-0c-6.285,-22.073 -8.244,-45.154 -5.769,-67.97l31.17,-13.863c6.653,-2.978 9.677,-10.747 6.7,-17.4l-6.421,-14.468Zm105.234,1.21l60.06,-0c3.117,-0 21.912,3.582 21.912,17.678c0,11.677 -14.422,15.864 -26.285,15.864l-55.734,0l0.047,-33.542Zm-0,81.693l46.01,-0c4.187,-0 22.471,1.209 28.286,24.564c1.814,7.164 5.862,30.518 8.607,38.008c2.744,8.374 13.863,25.122 25.727,25.122l75.087,0c-5.033,6.739 -10.536,13.113 -16.469,19.074l-30.566,-6.559c-7.117,-1.535 -14.142,3.024 -15.678,10.142l-7.257,33.868c-47.199,21.381 -101.456,21.126 -148.453,-0.698l-7.257,-33.868c-1.535,-7.118 -8.514,-11.677 -15.632,-10.142l-29.914,6.42c-5.551,-5.726 -10.711,-11.819 -15.445,-18.237l145.475,0c1.629,0 2.745,-0.279 2.745,-1.814l0,-51.454c0,-1.488 -1.116,-1.814 -2.745,-1.814l-42.568,-0l0.047,-32.612Zm-67.132,117.841c7.778,0.225 14.053,6.687 14.05,14.468c-0,7.937 -6.531,14.469 -14.468,14.469c-7.938,-0 -14.469,-6.532 -14.469,-14.469c0,-0.002 0,-0.004 0,-0.006c0,-7.937 6.531,-14.468 14.469,-14.468c0.139,-0 0.279,0.002 0.418,0.006Zm214.235,0.651c7.779,0.225 14.053,6.687 14.05,14.468c0,7.938 -6.531,14.469 -14.468,14.469c-7.937,-0 -14.469,-6.531 -14.469,-14.469c0,-0.002 0,-0.004 0,-0.006c0,-7.937 6.532,-14.468 14.469,-14.468c0.139,-0 0.279,0.002 0.418,0.006Z" style="fill:#e5e5e5;fill-rule:nonzero;stroke:#e6e6e6;stroke-width:4.65px;"/><path d="M311.947,121.999c-0,113.902 -93.727,207.629 -207.629,207.629c-113.902,0 -207.629,-93.727 -207.629,-207.629c-0,-113.902 93.727,-207.629 207.629,-207.629c113.902,0 207.629,93.727 207.629,207.629Zm-3.908,-20.051l32.379,20.051l-32.379,20.051l27.82,26.006l-35.636,13.352l22.238,30.938l-37.637,6.141l15.818,34.705l-38.102,-1.349l8.746,37.125l-37.124,-8.746l1.349,38.101l-34.706,-15.817l-6.141,37.636l-30.937,-22.237l-13.352,35.636l-26.006,-27.82l-20.051,32.379l-20.051,-32.379l-26.006,27.82l-13.352,-35.636l-30.938,22.237l-6.14,-37.636l-34.706,15.817l1.349,-38.101l-37.125,8.746l8.746,-37.125l-38.101,1.349l15.817,-34.705l-37.636,-6.141l22.237,-30.938l-35.636,-13.352l27.821,-26.006l-32.38,-20.051l32.38,-20.051l-27.821,-26.006l35.636,-13.352l-22.237,-30.937l37.636,-6.141l-15.817,-34.706l38.101,1.35l-8.746,-37.125l37.125,8.746l-1.349,-38.102l34.706,15.818l6.14,-37.637l30.938,22.238l13.352,-35.636l26.006,27.82l20.051,-32.379l20.051,32.379l26.006,-27.82l13.352,35.636l30.937,-22.238l6.141,37.637l34.706,-15.818l-1.349,38.102l37.124,-8.746l-8.746,37.125l38.102,-1.35l-15.818,34.706l37.637,6.141l-22.238,30.937l35.636,13.352l-27.82,26.006Z" style="fill:#e5e5e5;stroke:#e6e6e6;stroke-width:13.96px;stroke-linecap:round;stroke-miterlimit:4;"/><path d="M506.493,-338.684c-121.237,0 -219.911,98.721 -219.911,219.911c-0,121.191 98.72,219.911 219.911,219.911c121.191,0 219.911,-98.72 219.911,-219.911c-0,-121.19 -98.72,-219.911 -219.911,-219.911Zm-0.326,19.54c7.771,0.201 14.053,6.67 14.05,14.468c0,7.937 -6.531,14.469 -14.468,14.469c-7.938,-0 -14.469,-6.532 -14.469,-14.469c0,-0.002 0,-0.004 0,-0.006c0,-7.937 6.531,-14.468 14.469,-14.468c0.139,-0 0.279,0.002 0.418,0.006Zm33.124,23.819c51.379,9.624 95.997,41.402 121.889,86.811l-17.074,38.52c-2.931,6.653 0.093,14.469 6.699,17.446l32.845,14.562c1.019,10.266 1.143,20.602 0.372,30.891l-18.283,-0c-1.815,-0 -2.559,1.209 -2.559,2.977l0,8.374c0,19.725 -11.119,24.052 -20.888,25.122c-9.305,1.07 -19.586,-3.908 -20.889,-9.584c-5.49,-30.844 -14.608,-37.404 -29.03,-48.801c17.911,-11.352 36.52,-28.146 36.52,-50.57c0,-24.238 -16.608,-39.498 -27.913,-46.988c-15.911,-10.467 -33.496,-12.561 -38.242,-12.561l-188.88,0c26.113,-29.171 61.133,-48.93 99.604,-56.199l22.284,23.354c5.025,5.257 13.352,5.49 18.609,0.419l24.936,-23.773Zm-205.628,107.095c7.778,0.225 14.053,6.687 14.049,14.468c0,7.937 -6.531,14.468 -14.468,14.468c-7.937,0 -14.469,-6.531 -14.469,-14.468c0,-0.002 0,-0.004 0,-0.006c0,-7.937 6.532,-14.468 14.469,-14.468c0.139,-0 0.279,0.002 0.419,0.006Zm344.962,0.651c7.779,0.225 14.053,6.687 14.05,14.468c0,7.938 -6.531,14.469 -14.468,14.469c-7.937,-0 -14.469,-6.531 -14.469,-14.469c0,-0.002 0,-0.004 0,-0.006c0,-7.937 6.532,-14.468 14.469,-14.468c0.139,-0 0.279,0.002 0.418,0.006Zm-317.7,2.326l25.215,0l-0,113.701l-50.896,-0c-6.285,-22.073 -8.244,-45.154 -5.768,-67.97l31.169,-13.863c6.653,-2.978 9.677,-10.747 6.7,-17.4l-6.42,-14.468Zm105.233,1.21l60.06,-0c3.117,-0 21.912,3.582 21.912,17.678c0,11.677 -14.422,15.864 -26.285,15.864l-55.733,0l0.046,-33.542Zm0,81.693l46.011,-0c4.187,-0 22.47,1.209 28.285,24.564c1.815,7.164 5.862,30.518 8.607,38.008c2.745,8.374 13.863,25.122 25.727,25.122l75.087,0c-5.033,6.739 -10.536,13.113 -16.469,19.074l-30.565,-6.559c-7.118,-1.535 -14.143,3.024 -15.678,10.142l-7.258,33.868c-47.199,21.381 -101.456,21.126 -148.453,-0.698l-7.257,-33.868c-1.535,-7.118 -8.514,-11.677 -15.632,-10.142l-29.913,6.42c-5.551,-5.726 -10.712,-11.819 -15.446,-18.237l145.475,0c1.629,0 2.745,-0.279 2.745,-1.814l0,-51.454c0,-1.488 -1.116,-1.814 -2.745,-1.814l-42.567,-0l0.046,-32.612Zm-67.132,117.841c7.779,0.225 14.053,6.687 14.05,14.468c0,7.937 -6.531,14.469 -14.468,14.469c-7.937,-0 -14.469,-6.532 -14.469,-14.469c0,-0.002 0,-0.004 0,-0.006c0,-7.937 6.532,-14.468 14.469,-14.468c0.139,-0 0.279,0.002 0.418,0.006Zm214.236,0.651c7.778,0.225 14.053,6.687 14.049,14.469c0,7.937 -6.531,14.468 -14.468,14.468c-7.937,-0 -14.469,-6.531 -14.469,-14.468c0,-0.002 0,-0.005 0,-0.007c0,-7.937 6.532,-14.468 14.469,-14.468c0.14,0 0.279,0.002 0.419,0.006Z" style="fill:#e5e5e5;fill-rule:nonzero;stroke:#e6e6e6;stroke-width:4.65px;"/><path d="M714.122,-118.773c-0,113.902 -93.727,207.629 -207.629,207.629c-113.902,0 -207.629,-93.727 -207.629,-207.629c-0,-113.902 93.727,-207.629 207.629,-207.629c113.902,0 207.629,93.727 207.629,207.629Zm-3.908,-20.051l32.38,20.051l-32.38,20.052l27.82,26.005l-35.636,13.352l22.238,30.938l-37.637,6.141l15.818,34.705l-38.102,-1.349l8.746,37.125l-37.124,-8.746l1.349,38.102l-34.706,-15.818l-6.141,37.637l-30.937,-22.238l-13.352,35.636l-26.006,-27.82l-20.051,32.379l-20.051,-32.379l-26.006,27.82l-13.352,-35.636l-30.937,22.238l-6.141,-37.637l-34.706,15.818l1.349,-38.102l-37.125,8.746l8.747,-37.125l-38.102,1.349l15.817,-34.705l-37.636,-6.141l22.237,-30.938l-35.636,-13.352l27.821,-26.005l-32.38,-20.052l32.38,-20.051l-27.821,-26.006l35.636,-13.352l-22.237,-30.937l37.636,-6.141l-15.817,-34.705l38.102,1.349l-8.747,-37.125l37.125,8.746l-1.349,-38.102l34.706,15.818l6.141,-37.637l30.937,22.238l13.352,-35.636l26.006,27.82l20.051,-32.379l20.051,32.379l26.006,-27.82l13.352,35.636l30.937,-22.238l6.141,37.637l34.706,-15.818l-1.349,38.102l37.124,-8.746l-8.746,37.125l38.102,-1.349l-15.818,34.705l37.637,6.141l-22.238,30.937l35.636,13.352l-27.82,26.006Z" style="fill:#e5e5e5;stroke:#e6e6e6;stroke-width:13.96px;stroke-linecap:round;stroke-miterlimit:4;"/><g transform="matrix(1.0189,0,0,1.0189,0.971289,109.364)"><g transform="matrix(88,0,0,88,70.3466,116.868)"><path d="M0.635,-0.667l-0.207,0.667l-0.208,-0l-0.217,-0.667l0.216,0l0.105,0.364c0.008,0.021 0.014,0.042 0.02,0.063l0.123,-0.427l0.168,0Z" style="fill-rule:nonzero;"/></g><g transform="matrix(85.3333,0,0,85.3333,121.491,116.868)"><path d="M0.246,-0.688l0,0.155l-0.195,-0l0,-0.154l0.195,-0Zm0,0.19l0,0.497l-0.195,0l0,-0.497l0.195,0Z" style="fill-rule:nonzero;"/></g><g transform="matrix(85.3333,0,0,85.3333,141.319,116.868)"><path d="M0.007,-0.141l0.154,-0.021c0.009,0.036 0.044,0.054 0.105,0.054c0.05,0 0.075,-0.01 0.075,-0.029c0,-0.009 -0.005,-0.015 -0.014,-0.02c-0.01,-0.005 -0.033,-0.01 -0.07,-0.014c-0.101,-0.014 -0.164,-0.036 -0.189,-0.066c-0.025,-0.03 -0.037,-0.063 -0.037,-0.099c-0,-0.051 0.021,-0.092 0.063,-0.124c0.043,-0.031 0.098,-0.047 0.167,-0.047c0.12,0 0.197,0.044 0.23,0.131l-0.147,0.027c-0.014,-0.029 -0.043,-0.044 -0.087,-0.044c-0.021,0 -0.036,0.003 -0.046,0.009c-0.011,0.006 -0.016,0.011 -0.016,0.017c0,0.016 0.016,0.026 0.047,0.03c0.082,0.009 0.137,0.018 0.166,0.027c0.029,0.01 0.053,0.027 0.074,0.052c0.02,0.025 0.031,0.055 0.031,0.091c-0,0.054 -0.023,0.097 -0.068,0.129c-0.046,0.032 -0.108,0.048 -0.188,0.048c-0.135,0 -0.218,-0.05 -0.25,-0.151Z" style="fill-rule:nonzero;"/></g><g transform="matrix(85.3333,0,0,85.3333,180.383,116.868)"><path d="M0.534,-0.497l0,0.497l-0.18,-0l0,-0.082c-0.026,0.062 -0.078,0.092 -0.154,0.092c-0.047,0 -0.084,-0.013 -0.11,-0.039c-0.026,-0.026 -0.039,-0.064 -0.039,-0.113l0,-0.355l0.195,0l0,0.313c0,0.019 0.003,0.033 0.008,0.041c0.006,0.008 0.016,0.012 0.032,0.012c0.016,0 0.03,-0.006 0.04,-0.018c0.011,-0.012 0.016,-0.028 0.016,-0.05l-0,-0.298l0.192,0Z" style="fill-rule:nonzero;"/></g><g transform="matrix(85.3333,0,0,85.3333,223.6,116.868)"><path d="M0.552,-0l-0.186,-0c-0.004,-0.021 -0.007,-0.044 -0.007,-0.069c-0.035,0.053 -0.088,0.079 -0.159,0.079c-0.059,0 -0.103,-0.015 -0.132,-0.045c-0.029,-0.03 -0.044,-0.064 -0.044,-0.103c0,-0.052 0.024,-0.095 0.072,-0.127c0.048,-0.032 0.132,-0.052 0.254,-0.058l-0,-0.011c-0,-0.022 -0.005,-0.037 -0.015,-0.044c-0.01,-0.007 -0.025,-0.011 -0.044,-0.011c-0.045,0 -0.07,0.018 -0.075,0.055l-0.178,-0.017c0.025,-0.104 0.112,-0.156 0.259,-0.156c0.04,0 0.077,0.004 0.111,0.012c0.033,0.008 0.06,0.021 0.079,0.037c0.02,0.017 0.033,0.035 0.04,0.054c0.006,0.019 0.01,0.055 0.01,0.109l-0,0.198c-0,0.038 0.005,0.07 0.015,0.097Zm-0.202,-0.232c-0.083,0.008 -0.125,0.035 -0.125,0.079c0,0.03 0.017,0.045 0.049,0.045c0.021,0 0.039,-0.006 0.054,-0.018c0.014,-0.013 0.022,-0.04 0.022,-0.082l-0,-0.024Z" style="fill-rule:nonzero;"/></g><g transform="matrix(85.3333,0,0,85.3333,266.559,116.868)"><rect x="0.051" y="-0.667" width="0.192" height="0.667" style="fill-rule:nonzero;"/></g><g transform="matrix(85.3333,0,0,85.3333,220.96,173.245)"><path d="M0.651,-0l-0.226,-0l-0.098,-0.255l-0.064,0l-0,0.255l-0.205,-0l0,-0.667l0.348,0c0.077,0 0.137,0.018 0.179,0.054c0.043,0.036 0.064,0.084 0.064,0.143c-0,0.038 -0.008,0.072 -0.024,0.102c-0.015,0.029 -0.047,0.055 -0.094,0.077l0.12,0.291Zm-0.388,-0.397l0.087,-0c0.026,-0 0.046,-0.006 0.062,-0.017c0.016,-0.01 0.024,-0.026 0.024,-0.047c-0,-0.043 -0.027,-0.064 -0.079,-0.064l-0.094,0l-0,0.128Z" style="fill-rule:nonzero;"/></g><g transform="matrix(85.3333,0,0,85.3333,272.496,173.245)"><path d="M0.534,-0.497l0,0.497l-0.18,-0l0,-0.082c-0.026,0.062 -0.078,0.092 -0.154,0.092c-0.047,0 -0.084,-0.013 -0.11,-0.039c-0.026,-0.026 -0.039,-0.064 -0.039,-0.113l0,-0.355l0.195,0l0,0.313c0,0.019 0.003,0.033 0.008,0.041c0.006,0.008 0.016,0.012 0.032,0.012c0.016,0 0.03,-0.006 0.04,-0.018c0.011,-0.012 0.016,-0.028 0.016,-0.05l-0,-0.298l0.192,0Z" style="fill-rule:nonzero;"/></g><g transform="matrix(85.3333,0,0,85.3333,316.908,173.245)"><path d="M0.007,-0.141l0.154,-0.021c0.009,0.036 0.044,0.054 0.105,0.054c0.05,0 0.075,-0.01 0.075,-0.029c0,-0.009 -0.005,-0.015 -0.014,-0.02c-0.01,-0.005 -0.033,-0.01 -0.07,-0.014c-0.101,-0.014 -0.164,-0.036 -0.189,-0.066c-0.025,-0.03 -0.037,-0.063 -0.037,-0.099c-0,-0.051 0.021,-0.092 0.063,-0.124c0.043,-0.031 0.098,-0.047 0.167,-0.047c0.12,0 0.197,0.044 0.23,0.131l-0.147,0.027c-0.014,-0.029 -0.043,-0.044 -0.087,-0.044c-0.021,0 -0.036,0.003 -0.046,0.009c-0.011,0.006 -0.016,0.011 -0.016,0.017c0,0.016 0.016,0.026 0.047,0.03c0.082,0.009 0.137,0.018 0.166,0.027c0.029,0.01 0.053,0.027 0.074,0.052c0.02,0.025 0.031,0.055 0.031,0.091c-0,0.054 -0.023,0.097 -0.068,0.129c-0.046,0.032 -0.108,0.048 -0.188,0.048c-0.135,0 -0.218,-0.05 -0.25,-0.151Z" style="fill-rule:nonzero;"/></g><g transform="matrix(85.3333,0,0,85.3333,358.096,173.245)"><path d="M0.358,-0.497l-0,0.127l-0.099,-0l-0,0.183c-0,0.025 0.005,0.04 0.014,0.045c0.009,0.004 0.019,0.007 0.029,0.007c0.016,-0 0.034,-0.003 0.056,-0.009l-0,0.139c-0.039,0.008 -0.076,0.011 -0.113,0.011c-0.06,0 -0.104,-0.013 -0.132,-0.038c-0.029,-0.026 -0.043,-0.067 -0.043,-0.123l0.001,-0.058l-0,-0.157l-0.074,-0l-0,-0.127l0.074,0l0.003,-0.161l0.185,-0.003l-0,0.164l0.099,0Z" style="fill-rule:nonzero;"/></g><g transform="matrix(85.3333,0,0,85.3333,392.62,173.245)"><path d="M0.057,-0.121l0.067,-0.025c0.028,0.062 0.074,0.093 0.14,0.093c0.063,-0 0.111,-0.027 0.143,-0.08c0.032,-0.054 0.049,-0.126 0.05,-0.218c-0.044,0.08 -0.11,0.121 -0.197,0.121c-0.062,-0 -0.114,-0.022 -0.156,-0.064c-0.042,-0.042 -0.063,-0.094 -0.063,-0.156c0,-0.064 0.022,-0.118 0.066,-0.163c0.044,-0.045 0.101,-0.067 0.169,-0.067c0.084,-0 0.148,0.029 0.192,0.088c0.045,0.059 0.067,0.14 0.067,0.243c0,0.108 -0.023,0.195 -0.071,0.262c-0.047,0.067 -0.114,0.101 -0.201,0.101c-0.102,-0 -0.171,-0.045 -0.206,-0.135Zm0.221,-0.176c0.046,-0 0.085,-0.016 0.116,-0.049c0.031,-0.032 0.046,-0.069 0.046,-0.112c0,-0.042 -0.014,-0.078 -0.044,-0.108c-0.029,-0.03 -0.068,-0.045 -0.116,-0.045c-0.049,0 -0.088,0.016 -0.116,0.046c-0.028,0.031 -0.042,0.069 -0.042,0.113c-0,0.048 0.015,0.085 0.047,0.113c0.031,0.028 0.068,0.042 0.109,0.042Z" style="fill-rule:nonzero;"/></g><g transform="matrix(85.3333,0,0,85.3333,430.8,173.245)"><path d="M0.491,-0.667l-0.187,0.306l0.214,0.361l-0.095,0l-0.168,-0.284l-0.175,0.284l-0.078,0l0.214,-0.345l-0.19,-0.322l0.093,0l0.146,0.247l0.15,-0.247l0.076,0Z" style="fill-rule:nonzero;"/></g></g><g transform="matrix(0.79327,0,0,0.79327,45.0541,149.335)"><g transform="matrix(52.7047,0,0,52.7047,21.0336,24.3041)"><path d="M0.167,-0l-0.084,-0l0,-0.667l0.409,0l-0,0.074l-0.325,-0l-0,0.21l0.269,0l0,0.068l-0.269,-0l-0,0.315Z" style="fill-rule:nonzero;"/></g><g transform="matrix(52.7047,0,0,52.7047,45.1614,24.3041)"><path d="M0.402,-0.147l0.072,0.015c-0.013,0.042 -0.039,0.077 -0.077,0.104c-0.037,0.028 -0.082,0.042 -0.133,0.042c-0.067,-0 -0.122,-0.024 -0.163,-0.071c-0.042,-0.048 -0.063,-0.11 -0.063,-0.187c0,-0.078 0.022,-0.142 0.065,-0.19c0.043,-0.049 0.098,-0.073 0.163,-0.073c0.065,0 0.116,0.022 0.156,0.067c0.039,0.045 0.059,0.111 0.06,0.2l-0.358,0c-0,0.075 0.015,0.125 0.046,0.151c0.032,0.026 0.065,0.039 0.1,0.039c0.062,0 0.107,-0.032 0.132,-0.097Zm-0.004,-0.15c-0.001,-0.028 -0.005,-0.052 -0.014,-0.074c-0.008,-0.021 -0.023,-0.039 -0.043,-0.055c-0.02,-0.015 -0.044,-0.022 -0.072,-0.022c-0.039,-0 -0.071,0.013 -0.097,0.041c-0.027,0.027 -0.042,0.064 -0.045,0.11l0.271,0Z" style="fill-rule:nonzero;"/></g><g transform="matrix(52.7047,0,0,52.7047,71.0135,24.3041)"><path d="M0.153,-0l-0.076,-0l-0,-0.493l0.067,-0l0,0.115c0.024,-0.054 0.048,-0.09 0.072,-0.106c0.024,-0.016 0.048,-0.024 0.073,-0.024c0.008,0 0.018,0.001 0.03,0.002l0,0.073l-0.015,0c-0.043,0 -0.078,0.016 -0.106,0.048c-0.028,0.031 -0.043,0.073 -0.045,0.124l0,0.261Z" style="fill-rule:nonzero;"/></g><g transform="matrix(52.7047,0,0,52.7047,87.8574,24.3041)"><path d="M0.153,-0l-0.076,-0l-0,-0.493l0.067,-0l0,0.115c0.024,-0.054 0.048,-0.09 0.072,-0.106c0.024,-0.016 0.048,-0.024 0.073,-0.024c0.008,0 0.018,0.001 0.03,0.002l0,0.073l-0.015,0c-0.043,0 -0.078,0.016 -0.106,0.048c-0.028,0.031 -0.043,0.073 -0.045,0.124l0,0.261Z" style="fill-rule:nonzero;"/></g><g transform="matrix(52.7047,0,0,52.7047,104.701,24.3041)"><path d="M0.156,-0.667l-0,0.086l-0.083,-0l0,-0.086l0.083,0Zm-0.003,0.174l0,0.493l-0.076,-0l-0,-0.493l0.076,-0Z" style="fill-rule:nonzero;"/></g><g transform="matrix(52.7047,0,0,52.7047,116.27,24.3041)"><path d="M0.01,-0.128l0.073,-0.015c0.017,0.062 0.068,0.093 0.155,0.093c0.032,0 0.059,-0.007 0.081,-0.021c0.022,-0.015 0.033,-0.035 0.033,-0.061c0,-0.038 -0.028,-0.063 -0.084,-0.073l-0.104,-0.02c-0.041,-0.008 -0.074,-0.023 -0.098,-0.046c-0.024,-0.023 -0.036,-0.053 -0.036,-0.09c0,-0.042 0.017,-0.076 0.05,-0.104c0.032,-0.028 0.077,-0.042 0.132,-0.042c0.107,0 0.174,0.042 0.199,0.126l-0.071,0.015c-0.02,-0.052 -0.061,-0.077 -0.124,-0.077c-0.031,-0 -0.057,0.006 -0.077,0.019c-0.02,0.013 -0.03,0.031 -0.03,0.054c-0,0.036 0.025,0.059 0.077,0.069l0.096,0.017c0.1,0.018 0.151,0.067 0.151,0.146c-0,0.045 -0.019,0.082 -0.057,0.11c-0.037,0.028 -0.087,0.042 -0.149,0.042c-0.117,-0 -0.189,-0.048 -0.217,-0.142Z" style="fill-rule:nonzero;"/></g><g transform="matrix(52.7047,0,0,52.7047,140.191,24.3041)"><path d="M0.01,-0.128l0.073,-0.015c0.017,0.062 0.068,0.093 0.155,0.093c0.032,0 0.059,-0.007 0.081,-0.021c0.022,-0.015 0.033,-0.035 0.033,-0.061c0,-0.038 -0.028,-0.063 -0.084,-0.073l-0.104,-0.02c-0.041,-0.008 -0.074,-0.023 -0.098,-0.046c-0.024,-0.023 -0.036,-0.053 -0.036,-0.09c0,-0.042 0.017,-0.076 0.05,-0.104c0.032,-0.028 0.077,-0.042 0.132,-0.042c0.107,0 0.174,0.042 0.199,0.126l-0.071,0.015c-0.02,-0.052 -0.061,-0.077 -0.124,-0.077c-0.031,-0 -0.057,0.006 -0.077,0.019c-0.02,0.013 -0.03,0.031 -0.03,0.054c-0,0.036 0.025,0.059 0.077,0.069l0.096,0.017c0.1,0.018 0.151,0.067 0.151,0.146c-0,0.045 -0.019,0.082 -0.057,0.11c-0.037,0.028 -0.087,0.042 -0.149,0.042c-0.117,-0 -0.189,-0.048 -0.217,-0.142Z" style="fill-rule:nonzero;"/></g><g transform="matrix(52.7047,0,0,52.7047,164.111,24.3041)"><path d="M0.253,0.014c-0.067,-0 -0.12,-0.025 -0.158,-0.076c-0.038,-0.05 -0.057,-0.112 -0.057,-0.186c0,-0.079 0.021,-0.142 0.064,-0.188c0.043,-0.047 0.096,-0.071 0.159,-0.071c0.068,0 0.122,0.025 0.161,0.074c0.039,0.05 0.059,0.111 0.059,0.185c-0,0.077 -0.021,0.14 -0.064,0.189c-0.042,0.048 -0.097,0.073 -0.164,0.073Zm0.006,-0.064c0.039,0 0.072,-0.016 0.098,-0.048c0.027,-0.032 0.04,-0.083 0.04,-0.151c-0,-0.068 -0.014,-0.117 -0.042,-0.148c-0.027,-0.031 -0.06,-0.046 -0.097,-0.046c-0.038,-0 -0.07,0.015 -0.096,0.046c-0.027,0.031 -0.04,0.081 -0.04,0.148c0,0.071 0.013,0.122 0.04,0.153c0.026,0.031 0.059,0.046 0.097,0.046Z" style="fill-rule:nonzero;"/></g><g transform="matrix(52.7047,0,0,52.7047,190.966,24.3041)"><path d="M0.281,-0.493l0,0.06l-0.117,-0l0,0.433l-0.077,-0l0,-0.433l-0.084,-0l0,-0.06l0.084,-0c0.002,-0.079 0.017,-0.13 0.046,-0.153c0.029,-0.023 0.065,-0.034 0.107,-0.034c0.02,-0 0.044,0.002 0.07,0.007l0,0.061c-0.017,-0.005 -0.032,-0.007 -0.047,-0.007c-0.034,0 -0.059,0.008 -0.075,0.023c-0.016,0.014 -0.024,0.042 -0.024,0.083l0,0.02l0.117,-0Z" style="fill-rule:nonzero;"/></g><g transform="matrix(52.7047,0,0,52.7047,204.071,24.3041)"><path d="M0.3,-0.052l0,0.06c-0.027,0.004 -0.05,0.006 -0.07,0.006c-0.095,-0 -0.143,-0.05 -0.143,-0.15l-0,-0.297l-0.087,-0l-0,-0.06l0.087,-0l0.003,-0.124l0.072,-0.007l-0,0.131l0.11,-0l-0,0.06l-0.11,-0l-0,0.31c-0,0.051 0.026,0.076 0.079,0.076c0.017,0 0.037,-0.002 0.059,-0.005Z" style="fill-rule:nonzero;"/></g></g></g></svg>